<svg width="18" height="18" viewBox="0 0 18 18" fill="none" xmlns="http://www.w3.org/2000/svg">
<path d="M17.1 2.1001H0.9C0.402961 2.1001 0 2.50302 0 3.0001V15.0001C0 15.4971 0.402926 15.9001 0.9 15.9001H17.1C17.597 15.9001 18 15.4972 18 15.0001V3.0001C18 2.50306 17.5971 2.1001 17.1 2.1001ZM17.4 15.0001C17.4 15.1658 17.2657 15.3001 17.1 15.3001H0.9C0.734309 15.3001 0.600012 15.1658 0.600012 15.0001V3.0001C0.600012 2.83441 0.734309 2.70011 0.9 2.70011H17.1C17.2657 2.70011 17.4 2.83441 17.4 3.0001V15.0001Z" fill="#090E86"/>
<path d="M16.5261 3.30121C16.4468 3.29428 16.368 3.31914 16.3071 3.37032L9.38605 9.18429C9.16284 9.37192 8.83705 9.37192 8.61384 9.18429L1.69288 3.37029C1.61079 3.30138 1.49815 3.28148 1.39743 3.31812C1.29671 3.35475 1.22316 3.44236 1.20453 3.54793C1.18589 3.65351 1.22499 3.76098 1.30708 3.82989L8.22808 9.64358C8.67414 10.0191 9.32579 10.0191 9.77189 9.64358L16.6929 3.82992C16.7538 3.77877 16.7919 3.7055 16.7989 3.62623C16.8058 3.54695 16.7809 3.46816 16.7297 3.40724C16.6786 3.34624 16.6054 3.30813 16.5261 3.30121Z" fill="#090E86"/>
<path d="M5.76998 9.60242C5.66377 9.57873 5.5531 9.61438 5.48068 9.69559L1.28067 14.1956C1.20466 14.2734 1.17675 14.3863 1.20776 14.4906C1.23876 14.5949 1.32381 14.6742 1.42998 14.6979C1.53619 14.7216 1.64686 14.686 1.71928 14.6048L5.91929 10.1048C5.9953 10.0269 6.02321 9.91401 5.99221 9.80974C5.9612 9.70547 5.87619 9.62612 5.76998 9.60242Z" fill="#090E86"/>
<path d="M12.5193 9.69559C12.4469 9.61438 12.3362 9.57873 12.23 9.60242C12.1238 9.62612 12.0388 9.70547 12.0078 9.80974C11.9768 9.91405 12.0047 10.0269 12.0807 10.1048L16.2807 14.6048C16.3946 14.7214 16.5808 14.7258 16.7 14.6145C16.8193 14.5033 16.8278 14.3173 16.7193 14.1956L12.5193 9.69559Z" fill="#090E86"/>
</svg>
