<svg width="20" height="20" viewBox="0 0 20 20" fill="none" xmlns="http://www.w3.org/2000/svg">
<path d="M9.99756 15.0132C10.3212 15.0132 10.5835 14.7507 10.5835 14.4272V12C10.5835 11.6764 10.3212 11.4141 9.99756 11.4141C9.67407 11.4141 9.41162 11.6764 9.41162 12V14.4272C9.41162 14.7507 9.67407 15.0132 9.99756 15.0132Z" fill="#1400FF"/>
<path d="M16.713 6.427H13.9399V3.57269C13.9399 1.60263 12.1714 0 9.99762 0C7.82401 0 6.05551 1.60263 6.05551 3.57269V6.427H3.28223C2.95859 6.427 2.69629 6.68945 2.69629 7.01294V14.5064C2.69629 17.5356 5.16074 20 8.18991 20H11.8055C14.8347 20 17.2991 17.5356 17.2991 14.5064V7.01294C17.299 6.68945 17.0367 6.427 16.713 6.427ZM7.22739 3.57269C7.22739 2.24884 8.47006 1.17188 9.99762 1.17188C11.5252 1.17188 12.768 2.24884 12.768 3.57269V6.427H7.22739V3.57269ZM16.1271 14.5064C16.1271 16.8893 14.1884 18.8281 11.8053 18.8281H8.18991C5.80695 18.8281 3.86816 16.8893 3.86816 14.5064V7.59888H16.1271V14.5064Z" fill="#1400FF"/>
</svg>
